<svg version="1.2" xmlns="http://www.w3.org/2000/svg" viewBox="0 0 960 124" width="960" height="124">
	<title>wave-haikei(2)-svg</title>
	<style>
		.s0 { fill: #277ba5 } 
	</style>
	<path id="Layer" class="s0" d="m0 15l22.8 4.7c22.9 4.6 68.5 14 114.2 7.5 45.7-6.5 91.3-28.9 137-26.5 45.7 2.3 91.3 29.3 137.2 35 45.8 5.6 91.8-10 137.6-19.4 45.9-9.3 91.5-12.3 137.2-8.3 45.7 4 91.3 15 137 23.3 45.7 8.4 91.3 14 114.2 16.9l22.8 2.8v74h-22.8c-22.9 0-68.5 0-114.2 0-45.7 0-91.3 0-137 0-45.7 0-91.3 0-137.2 0-45.8 0-91.8 0-137.6 0-45.9 0-91.5 0-137.2 0-45.7 0-91.3 0-137 0-45.7 0-91.3 0-114.2 0h-22.8z"/>
</svg>