<svg version="1.2" xmlns="https://www.w3.org/2000/svg" viewBox="0 0 960 151" width="960" height="151">
	<title>wave-svg</title>
	<style>
		.s0 { fill: #277ba5 } 
	</style>
	<path id="Layer" class="s0" d="m0 30l22.8-3.5c22.9-3.5 68.5-10.5 114.2-16.8 45.7-6.4 91.3-12 137-5.2 45.7 6.8 91.3 26.2 137.2 33.5 45.8 7.3 91.8 2.7 137.6-5.8 45.9-8.5 91.5-20.9 137.2-14 45.7 6.8 91.3 32.8 137 38.6 45.7 5.9 91.3-8.5 114.2-15.6l22.8-7.2v117h-22.8c-22.9 0-68.5 0-114.2 0-45.7 0-91.3 0-137 0-45.7 0-91.3 0-137.2 0-45.8 0-91.8 0-137.6 0-45.9 0-91.5 0-137.2 0-45.7 0-91.3 0-137 0-45.7 0-91.3 0-114.2 0h-22.8z"/>
</svg>